<?xml version="1.0" standalone="no"?>
<!DOCTYPE svg PUBLIC "-//W3C//DTD SVG 20010904//EN"
 "http://www.w3.org/TR/2001/REC-SVG-20010904/DTD/svg10.dtd">
<svg version="1.0" xmlns="http://www.w3.org/2000/svg"
 width="494.000000pt" height="165.000000pt" viewBox="0 0 494.000000 165.000000"
 preserveAspectRatio="xMidYMid meet">

<g transform="translate(0.000000,165.000000) scale(0.100000,-0.100000)"
fill="#000000" stroke="none">
<path d="M1198 1595 c-175 -48 -243 -103 -278 -222 l-13 -42 -48 54 c-58 62
-113 93 -135 75 -21 -18 -18 -57 6 -65 46 -14 177 -181 158 -200 -3 -4 -48 2
-100 12 -51 10 -133 18 -183 18 -78 0 -99 -4 -152 -29 -68 -31 -123 -83 -167
-158 -26 -44 -28 -45 -88 -52 -87 -9 -128 -32 -156 -86 -22 -43 -23 -53 -20
-245 3 -193 4 -201 27 -234 34 -47 91 -71 172 -71 l67 0 65 -87 c36 -49 92
-116 125 -149 103 -105 204 -127 342 -73 75 29 138 28 240 -5 142 -46 219 -27
326 80 164 164 241 348 251 601 5 116 3 140 -17 205 -57 192 -174 295 -347
306 l-73 5 34 38 c45 49 57 74 95 193 40 125 39 150 -9 153 -19 1 -74 -9 -122
-22z m72 -70 c0 -17 -63 -170 -80 -194 -25 -37 -109 -79 -173 -87 l-48 -7 7
44 c10 66 41 143 68 168 35 33 226 97 226 76z m-520 -392 c100 -21 265 -20
365 2 167 37 251 21 336 -64 114 -114 144 -292 89 -527 -33 -139 -91 -249
-190 -357 -93 -102 -153 -117 -293 -72 -98 31 -156 31 -254 0 -136 -43 -198
-30 -284 62 -49 52 -129 156 -129 166 0 4 121 7 268 7 195 0 271 3 280 12 17
17 17 379 0 396 -9 9 -96 12 -330 12 l-319 0 6 35 c3 19 8 51 11 71 14 94 96
214 170 249 77 36 130 38 274 8z m-524 -254 c-3 -17 -6 -49 -6 -70 0 -38 -1
-39 -37 -39 -41 0 -83 31 -83 62 0 48 36 76 99 77 32 1 33 0 27 -30z m282
-187 l372 -3 0 -129 0 -130 -70 0 -70 0 0 49 c0 28 -6 53 -13 60 -21 16 -27 3
-27 -56 l0 -53 -90 0 -90 0 0 53 c0 59 -6 72 -27 56 -7 -7 -13 -32 -13 -60 l0
-49 -85 0 -85 0 0 54 c0 37 -4 56 -14 59 -22 8 -26 -2 -26 -60 l0 -53 -59 0
c-44 0 -65 5 -85 21 -26 20 -26 23 -26 141 0 111 1 119 18 112 9 -5 185 -10
390 -12z"/>
<path d="M1255 1021 c-5 -10 21 -41 35 -41 21 0 83 -81 102 -132 19 -52 39
-71 52 -50 7 11 -30 108 -55 143 -24 34 -95 89 -115 89 -7 0 -15 -4 -19 -9z"/>
<path d="M2261 966 c-7 -8 -11 -25 -9 -38 2 -18 9 -23 32 -23 36 0 56 27 40
53 -14 22 -48 27 -63 8z"/>
<path d="M4458 955 c-14 -32 5 -57 41 -53 18 2 27 10 29 26 7 50 -49 72 -70
27z"/>
<path d="M3395 951 c-117 -29 -186 -138 -171 -270 18 -150 107 -221 261 -208
111 10 105 3 105 128 l0 109 -30 0 -29 0 -3 -87 -3 -88 -60 -3 c-115 -5 -170
54 -170 183 0 77 19 122 67 158 35 26 112 33 166 14 43 -15 43 -15 53 11 12
31 4 37 -64 52 -53 11 -78 11 -122 1z"/>
<path d="M1785 939 c-3 -8 -4 -113 -3 -234 l3 -220 74 -3 c193 -8 289 61 299
215 7 107 -32 184 -114 224 -60 28 -250 41 -259 18z m225 -68 c107 -57 107
-255 0 -312 -24 -13 -56 -19 -102 -19 l-68 0 0 175 0 175 68 0 c46 0 78 -6
102 -19z"/>
<path d="M2823 933 c-23 -4 -23 -6 -23 -176 0 -95 5 -189 11 -210 15 -54 58
-79 127 -74 59 4 77 16 68 43 -5 16 -14 18 -58 15 -72 -5 -78 6 -78 141 l0
108 65 0 c63 0 65 1 65 25 0 24 -2 25 -64 25 l-65 0 -3 52 c-3 53 -7 58 -45
51z"/>
<path d="M2520 833 c-136 -51 -149 -275 -20 -340 28 -15 61 -23 90 -22 71 2
95 11 98 40 l3 26 -75 -5 c-73 -4 -76 -4 -105 26 -19 18 -31 41 -31 56 l0 26
121 0 122 0 -6 51 c-8 66 -34 110 -77 131 -34 17 -90 22 -120 11z m101 -72
c16 -16 29 -39 29 -50 0 -20 -6 -21 -85 -21 -91 0 -96 4 -71 49 15 27 52 50
79 51 10 0 32 -13 48 -29z"/>
<path d="M3780 829 c-66 -27 -101 -87 -102 -174 -1 -127 71 -193 199 -182 72
5 85 13 77 42 -5 19 -12 20 -73 17 -41 -3 -77 1 -91 8 -20 11 -50 64 -50 90 0
6 44 10 120 10 l120 0 0 43 c-1 62 -30 120 -73 140 -39 19 -89 21 -127 6z m85
-49 c21 -8 55 -60 55 -85 0 -3 -41 -5 -91 -5 -89 0 -90 0 -83 23 8 28 33 57
59 68 27 11 30 11 60 -1z"/>
<path d="M4160 834 c-14 -3 -40 -7 -58 -10 l-32 -5 2 -172 3 -172 30 0 30 0 3
153 3 152 48 0 c33 0 56 -6 72 -19 23 -18 24 -27 29 -153 l5 -133 30 0 30 0 0
130 c0 141 -9 173 -55 206 -26 19 -97 30 -140 23z"/>
<path d="M4720 829 c-66 -27 -101 -87 -102 -174 -1 -127 71 -193 199 -182 72
5 85 13 77 42 -5 19 -12 20 -73 17 -41 -3 -77 1 -91 8 -20 11 -50 64 -50 90 0
6 44 10 120 10 l120 0 0 43 c-1 62 -30 120 -73 140 -39 19 -89 21 -127 6z m85
-49 c21 -8 55 -60 55 -85 0 -3 -41 -5 -91 -5 -89 0 -90 0 -83 23 8 28 33 57
59 68 27 11 30 11 60 -1z"/>
<path d="M2260 655 l0 -175 30 0 30 0 0 175 0 175 -30 0 -30 0 0 -175z"/>
<path d="M4460 655 l0 -175 35 0 35 0 0 175 0 175 -35 0 -35 0 0 -175z"/>
</g>
</svg>
